<svg xmlns="http://www.w3.org/2000/svg" version="1.1" xmlns:xlink="http://www.w3.org/1999/xlink" xmlns:svgjs="http://svgjs.dev/svgjs" width="2000" height="2572" viewBox="0 0 2000 2572"><g transform="matrix(1,0,0,1,-0.08305289144357175,1.0412955465585583)"><svg viewBox="0 0 192 247" data-background-color="#e8e7d5" preserveAspectRatio="xMidYMid meet" height="2572" width="2000" xmlns="http://www.w3.org/2000/svg" xmlns:xlink="http://www.w3.org/1999/xlink"><g id="tight-bounds" transform="matrix(1,0,0,1,0.007973077578583343,-0.09999999999999432)"><svg viewBox="0 0 191.98405384484286 247.2" height="247.2" width="191.98405384484286"><g><svg viewBox="0 0 395.52 509.2742967028789" height="247.2" width="191.98405384484286"><g transform="matrix(1,0,0,1,0,310.05192391782856)"><svg viewBox="0 0 395.52 199.22237278505037" height="199.22237278505037" width="395.52"><g id="textblocktransform"><svg viewBox="0 0 395.52 199.22237278505037" height="199.22237278505037" width="395.52" id="textblock"><g><svg viewBox="0 0 395.52 147.09925925925924" height="147.09925925925924" width="395.52"><g transform="matrix(1,0,0,1,0,0)"><svg width="395.52" viewBox="1.1 -35.9 97.19000000000001 36.15" height="147.09925925925924" data-palette-color="#b2bbda"><path d="M16.35-4.4L16.35-0.65Q14.7 0.25 12.65 0.25L12.65 0.25Q5.15 0.25 5.15-7.4L5.15-7.4 5.15-22.15 1.1-22.15 1.1-25.35 5.15-25.35 5.15-31.65 9.1-31.65 9.1-25.35 16.1-25.35 16.1-22.15 9.1-22.15 9.1-7.3Q9.1-3.25 12.9-3.25L12.9-3.25Q14.85-3.25 16.35-4.4L16.35-4.4ZM26.25-25.35L26.25 0 22.3 0 22.3-25.35 26.25-25.35ZM26.1-35.15Q26.85-34.4 26.85-33.3 26.85-32.2 26.1-31.48 25.35-30.75 24.25-30.75 23.15-30.75 22.42-31.48 21.7-32.2 21.7-33.3 21.7-34.4 22.42-35.15 23.15-35.9 24.25-35.9 25.35-35.9 26.1-35.15ZM45.49-25.35L45.49-22.15 39.89-22.15 39.89 0 35.94 0 35.94-22.15 31.59-22.15 31.59-25.35 35.94-25.35 35.94-27.7Q35.94-31.4 37.92-33.55 39.89-35.7 43.39-35.7L43.39-35.7Q44.59-35.7 45.84-35.35L45.84-35.35 45.84-31.75Q44.64-32.15 43.54-32.15L43.54-32.15Q41.94-32.15 40.92-31.05 39.89-29.95 39.89-27.65L39.89-27.65 39.89-25.35 45.49-25.35ZM61.94-25.35L61.94-22.15 56.34-22.15 56.34 0 52.39 0 52.39-22.15 48.04-22.15 48.04-25.35 52.39-25.35 52.39-27.7Q52.39-31.4 54.37-33.55 56.34-35.7 59.84-35.7L59.84-35.7Q61.04-35.7 62.29-35.35L62.29-35.35 62.29-31.75Q61.09-32.15 59.99-32.15L59.99-32.15Q58.39-32.15 57.37-31.05 56.34-29.95 56.34-27.65L56.34-27.65 56.34-25.35 61.94-25.35ZM70.79-25.35L70.79 0 66.84 0 66.84-25.35 70.79-25.35ZM70.64-35.15Q71.39-34.4 71.39-33.3 71.39-32.2 70.64-31.48 69.89-30.75 68.79-30.75 67.69-30.75 66.96-31.48 66.24-32.2 66.24-33.3 66.24-34.4 66.96-35.15 67.69-35.9 68.79-35.9 69.89-35.9 70.64-35.15ZM98.29-17.45L98.29 0 94.34 0 94.34-16.4Q94.34-19.2 92.91-20.68 91.49-22.15 89.19-22.15L89.19-22.15Q86.34-22.15 84.26-19.95 82.19-17.75 82.19-13.85L82.19-13.85 82.19 0 78.29 0 78.29-25.35 82.19-25.35 82.19-20.95Q84.44-25.7 90.19-25.7L90.19-25.7Q93.89-25.7 96.09-23.45 98.29-21.2 98.29-17.45L98.29-17.45Z" opacity="1" transform="matrix(1,0,0,1,0,0)" fill="#000000" class="wordmark-text-0" data-fill-palette-color="primary" id="text-0"></path></svg></g></svg></g><g transform="matrix(1,0,0,1,75.54432,181.82586398814811)"><svg viewBox="0 0 244.43135999999998 17.39650879690223" height="17.39650879690223" width="244.43135999999998"><g transform="matrix(1,0,0,1,0,0)"><svg width="244.43135999999998" viewBox="0.2 -36.83 646.6999999999999 45.96" height="17.39650879690223" data-palette-color="#b2bbda"><path d="M31.3-35.83L18.15-14.25 18.15 0 13.33 0 13.33-14.25 0.2-35.83 4.45-35.83Q5.1-35.83 5.48-35.5 5.85-35.18 6.13-34.7L6.13-34.7 14.33-20.78Q14.83-19.9 15.16-19.13 15.5-18.35 15.78-17.6L15.78-17.6Q16.05-18.38 16.38-19.15 16.7-19.93 17.2-20.78L17.2-20.78 25.38-34.7Q25.6-35.1 25.99-35.46 26.38-35.83 27-35.83L27-35.83 31.3-35.83ZM41.35-25.73L41.35-25.73Q44.12-25.73 46.36-24.8 48.6-23.88 50.16-22.18 51.72-20.48 52.56-18.06 53.4-15.65 53.4-12.68L53.4-12.68Q53.4-9.68 52.56-7.28 51.72-4.88 50.16-3.18 48.6-1.48 46.36-0.56 44.12 0.35 41.35 0.35L41.35 0.35Q38.57 0.35 36.34-0.56 34.1-1.48 32.52-3.18 30.95-4.88 30.1-7.28 29.25-9.68 29.25-12.68L29.25-12.68Q29.25-15.65 30.1-18.06 30.95-20.48 32.52-22.18 34.1-23.88 36.34-24.8 38.57-25.73 41.35-25.73ZM41.35-3.13L41.35-3.13Q45.1-3.13 46.95-5.64 48.8-8.15 48.8-12.65L48.8-12.65Q48.8-17.18 46.95-19.7 45.1-22.23 41.35-22.23L41.35-22.23Q39.45-22.23 38.05-21.58 36.65-20.93 35.71-19.7 34.77-18.48 34.31-16.69 33.85-14.9 33.85-12.65L33.85-12.65Q33.85-10.4 34.31-8.63 34.77-6.85 35.71-5.64 36.65-4.42 38.05-3.78 39.45-3.13 41.35-3.13ZM58.3-25.33L62.75-25.33 62.75-9.18Q62.75-6.3 64.07-4.73 65.4-3.15 68.07-3.15L68.07-3.15Q70.02-3.15 71.75-4.08 73.47-5 74.92-6.65L74.92-6.65 74.92-25.33 79.37-25.33 79.37 0 76.72 0Q75.77 0 75.52-0.93L75.52-0.93 75.17-3.65Q73.52-1.83 71.47-0.71 69.42 0.4 66.77 0.4L66.77 0.4Q64.7 0.4 63.11-0.29 61.52-0.98 60.45-2.23 59.37-3.48 58.83-5.25 58.3-7.03 58.3-9.18L58.3-9.18 58.3-25.33ZM91.14 0L86.69 0 86.69-25.33 89.24-25.33Q89.97-25.33 90.24-25.05 90.52-24.78 90.62-24.1L90.62-24.1 90.92-20.15Q92.22-22.8 94.13-24.29 96.04-25.78 98.62-25.78L98.62-25.78Q99.67-25.78 100.52-25.54 101.37-25.3 102.09-24.88L102.09-24.88 101.52-21.55Q101.34-20.93 100.74-20.93L100.74-20.93Q100.39-20.93 99.67-21.16 98.94-21.4 97.64-21.4L97.64-21.4Q95.32-21.4 93.76-20.05 92.19-18.7 91.14-16.13L91.14-16.13 91.14 0ZM125.01-25.75L125.01-25.75Q126.66-25.75 128.1-25.39 129.54-25.03 130.71-24.33L130.71-24.33 137.59-24.33 137.59-22.68Q137.59-21.85 136.54-21.63L136.54-21.63 133.66-21.23Q134.51-19.6 134.51-17.6L134.51-17.6Q134.51-15.75 133.8-14.24 133.09-12.73 131.83-11.65 130.56-10.58 128.83-10 127.09-9.43 125.01-9.43L125.01-9.43Q123.24-9.43 121.66-9.85L121.66-9.85Q120.86-9.35 120.45-8.78 120.04-8.2 120.04-7.65L120.04-7.65Q120.04-6.75 120.76-6.29 121.49-5.83 122.69-5.63 123.89-5.43 125.41-5.38 126.94-5.33 128.53-5.21 130.11-5.1 131.64-4.83 133.16-4.55 134.36-3.93 135.56-3.3 136.29-2.2 137.01-1.1 137.01 0.65L137.01 0.65Q137.01 2.27 136.2 3.8 135.39 5.33 133.86 6.51 132.34 7.7 130.14 8.41 127.94 9.13 125.16 9.13L125.16 9.13Q122.39 9.13 120.3 8.58 118.21 8.03 116.84 7.1 115.46 6.18 114.78 4.96 114.09 3.75 114.09 2.43L114.09 2.43Q114.09 0.55 115.28-0.76 116.46-2.08 118.54-2.85L118.54-2.85Q117.46-3.35 116.83-4.19 116.19-5.03 116.19-6.43L116.19-6.43Q116.19-6.98 116.39-7.56 116.59-8.15 117-8.72 117.41-9.3 118.01-9.83 118.61-10.35 119.41-10.75L119.41-10.75Q117.54-11.8 116.48-13.54 115.41-15.28 115.41-17.6L115.41-17.6Q115.41-19.45 116.13-20.96 116.84-22.48 118.11-23.54 119.39-24.6 121.15-25.18 122.91-25.75 125.01-25.75ZM132.91 1.38L132.91 1.38Q132.91 0.43 132.39-0.15 131.86-0.73 130.96-1.04 130.06-1.35 128.89-1.5 127.71-1.65 126.41-1.71 125.11-1.78 123.76-1.85 122.41-1.93 121.19-2.13L121.19-2.13Q119.76-1.45 118.88-0.48 117.99 0.5 117.99 1.85L117.99 1.85Q117.99 2.7 118.43 3.44 118.86 4.17 119.76 4.71 120.66 5.25 122.03 5.56 123.39 5.88 125.24 5.88L125.24 5.88Q127.04 5.88 128.46 5.55 129.89 5.23 130.88 4.63 131.86 4.03 132.39 3.2 132.91 2.38 132.91 1.38ZM125.01-12.38L125.01-12.38Q126.36-12.38 127.4-12.75 128.44-13.13 129.14-13.8 129.84-14.48 130.19-15.41 130.54-16.35 130.54-17.48L130.54-17.48Q130.54-19.8 129.13-21.18 127.71-22.55 125.01-22.55L125.01-22.55Q122.34-22.55 120.93-21.18 119.51-19.8 119.51-17.48L119.51-17.48Q119.51-16.35 119.88-15.41 120.24-14.48 120.94-13.8 121.64-13.13 122.66-12.75 123.69-12.38 125.01-12.38ZM152.29-25.73L152.29-25.73Q155.06-25.73 157.3-24.8 159.54-23.88 161.1-22.18 162.66-20.48 163.5-18.06 164.34-15.65 164.34-12.68L164.34-12.68Q164.34-9.68 163.5-7.28 162.66-4.88 161.1-3.18 159.54-1.48 157.3-0.56 155.06 0.35 152.29 0.35L152.29 0.35Q149.51 0.35 147.27-0.56 145.04-1.48 143.46-3.18 141.89-4.88 141.04-7.28 140.19-9.68 140.19-12.68L140.19-12.68Q140.19-15.65 141.04-18.06 141.89-20.48 143.46-22.18 145.04-23.88 147.27-24.8 149.51-25.73 152.29-25.73ZM152.29-3.13L152.29-3.13Q156.04-3.13 157.89-5.64 159.74-8.15 159.74-12.65L159.74-12.65Q159.74-17.18 157.89-19.7 156.04-22.23 152.29-22.23L152.29-22.23Q150.39-22.23 148.99-21.58 147.59-20.93 146.65-19.7 145.71-18.48 145.25-16.69 144.79-14.9 144.79-12.65L144.79-12.65Q144.79-10.4 145.25-8.63 145.71-6.85 146.65-5.64 147.59-4.42 148.99-3.78 150.39-3.13 152.29-3.13ZM177.51 0.4L177.51 0.4Q174.51 0.4 172.9-1.28 171.28-2.95 171.28-6.1L171.28-6.1 171.28-21.6 168.23-21.6Q167.83-21.6 167.56-21.84 167.28-22.08 167.28-22.58L167.28-22.58 167.28-24.35 171.43-24.88 172.46-32.7Q172.51-33.08 172.78-33.31 173.06-33.55 173.48-33.55L173.48-33.55 175.73-33.55 175.73-24.83 182.98-24.83 182.98-21.6 175.73-21.6 175.73-6.4Q175.73-4.8 176.51-4.03 177.28-3.25 178.51-3.25L178.51-3.25Q179.21-3.25 179.72-3.44 180.23-3.63 180.61-3.85 180.98-4.08 181.25-4.26 181.51-4.45 181.71-4.45L181.71-4.45Q182.06-4.45 182.33-4.03L182.33-4.03 183.63-1.9Q182.48-0.83 180.86-0.21 179.23 0.4 177.51 0.4ZM198.73-25.73L198.73-25.73Q201.51-25.73 203.74-24.8 205.98-23.88 207.54-22.18 209.11-20.48 209.94-18.06 210.78-15.65 210.78-12.68L210.78-12.68Q210.78-9.68 209.94-7.28 209.11-4.88 207.54-3.18 205.98-1.48 203.74-0.56 201.51 0.35 198.73 0.35L198.73 0.35Q195.96 0.35 193.72-0.56 191.48-1.48 189.91-3.18 188.33-4.88 187.48-7.28 186.63-9.68 186.63-12.68L186.63-12.68Q186.63-15.65 187.48-18.06 188.33-20.48 189.91-22.18 191.48-23.88 193.72-24.8 195.96-25.73 198.73-25.73ZM198.73-3.13L198.73-3.13Q202.48-3.13 204.33-5.64 206.18-8.15 206.18-12.65L206.18-12.65Q206.18-17.18 204.33-19.7 202.48-22.23 198.73-22.23L198.73-22.23Q196.83-22.23 195.43-21.58 194.03-20.93 193.09-19.7 192.16-18.48 191.69-16.69 191.23-14.9 191.23-12.65L191.23-12.65Q191.23-10.4 191.69-8.63 192.16-6.85 193.09-5.64 194.03-4.42 195.43-3.78 196.83-3.13 198.73-3.13ZM236.18-25.73L236.18-25.73Q238.95-25.73 241.19-24.8 243.43-23.88 244.99-22.18 246.55-20.48 247.39-18.06 248.23-15.65 248.23-12.68L248.23-12.68Q248.23-9.68 247.39-7.28 246.55-4.88 244.99-3.18 243.43-1.48 241.19-0.56 238.95 0.35 236.18 0.35L236.18 0.35Q233.4 0.35 231.16-0.56 228.93-1.48 227.35-3.18 225.78-4.88 224.93-7.28 224.08-9.68 224.08-12.68L224.08-12.68Q224.08-15.65 224.93-18.06 225.78-20.48 227.35-22.18 228.93-23.88 231.16-24.8 233.4-25.73 236.18-25.73ZM236.18-3.13L236.18-3.13Q239.93-3.13 241.78-5.64 243.63-8.15 243.63-12.65L243.63-12.65Q243.63-17.18 241.78-19.7 239.93-22.23 236.18-22.23L236.18-22.23Q234.28-22.23 232.88-21.58 231.48-20.93 230.54-19.7 229.6-18.48 229.14-16.69 228.68-14.9 228.68-12.65L228.68-12.65Q228.68-10.4 229.14-8.63 229.6-6.85 230.54-5.64 231.48-4.42 232.88-3.78 234.28-3.13 236.18-3.13ZM258.17 0L253.72 0 253.72-25.33 256.37-25.33Q257.32-25.33 257.57-24.4L257.57-24.4 257.92-21.65Q259.57-23.48 261.61-24.6 263.65-25.73 266.32-25.73L266.32-25.73Q268.4-25.73 269.99-25.04 271.57-24.35 272.64-23.09 273.7-21.83 274.25-20.05 274.8-18.28 274.8-16.13L274.8-16.13 274.8 0 270.35 0 270.35-16.13Q270.35-19 269.04-20.59 267.72-22.18 265.02-22.18L265.02-22.18Q263.05-22.18 261.34-21.23 259.62-20.28 258.17-18.65L258.17-18.65 258.17 0ZM282.02-36.83L286.47-36.83 286.47 0 282.02 0 282.02-36.83ZM294.82-25.33L299.27-25.33 299.27 0 294.82 0 294.82-25.33ZM300.27-33.27L300.27-33.27Q300.27-32.63 300.01-32.06 299.74-31.5 299.31-31.06 298.87-30.63 298.29-30.38 297.72-30.13 297.07-30.13L297.07-30.13Q296.42-30.13 295.86-30.38 295.29-30.63 294.86-31.06 294.42-31.5 294.17-32.06 293.92-32.63 293.92-33.27L293.92-33.27Q293.92-33.93 294.17-34.51 294.42-35.1 294.86-35.54 295.29-35.98 295.86-36.23 296.42-36.48 297.07-36.48L297.07-36.48Q297.72-36.48 298.29-36.23 298.87-35.98 299.31-35.54 299.74-35.1 300.01-34.51 300.27-33.93 300.27-33.27ZM311.57 0L307.12 0 307.12-25.33 309.77-25.33Q310.72-25.33 310.97-24.4L310.97-24.4 311.32-21.65Q312.97-23.48 315-24.6 317.04-25.73 319.72-25.73L319.72-25.73Q321.79-25.73 323.38-25.04 324.97-24.35 326.03-23.09 327.09-21.83 327.64-20.05 328.19-18.28 328.19-16.13L328.19-16.13 328.19 0 323.74 0 323.74-16.13Q323.74-19 322.43-20.59 321.12-22.18 318.42-22.18L318.42-22.18Q316.44-22.18 314.73-21.23 313.02-20.28 311.57-18.65L311.57-18.65 311.57 0ZM344.94-25.73L344.94-25.73Q347.21-25.73 349.14-24.96 351.06-24.2 352.46-22.76 353.86-21.33 354.65-19.21 355.44-17.1 355.44-14.4L355.44-14.4Q355.44-13.35 355.21-13 354.99-12.65 354.36-12.65L354.36-12.65 337.51-12.65Q337.56-10.25 338.16-8.47 338.76-6.7 339.81-5.51 340.86-4.33 342.31-3.74 343.76-3.15 345.56-3.15L345.56-3.15Q347.24-3.15 348.45-3.54 349.66-3.93 350.54-4.38 351.41-4.83 352-5.21 352.59-5.6 353.01-5.6L353.01-5.6Q353.56-5.6 353.86-5.18L353.86-5.18 355.11-3.55Q354.29-2.55 353.14-1.81 351.99-1.07 350.68-0.6 349.36-0.13 347.96 0.11 346.56 0.35 345.19 0.35L345.19 0.35Q342.56 0.35 340.35-0.54 338.14-1.43 336.53-3.14 334.91-4.85 334.01-7.38 333.11-9.9 333.11-13.18L333.11-13.18Q333.11-15.83 333.93-18.13 334.74-20.43 336.26-22.11 337.79-23.8 339.99-24.76 342.19-25.73 344.94-25.73ZM345.04-22.45L345.04-22.45Q341.81-22.45 339.96-20.59 338.11-18.73 337.66-15.43L337.66-15.43 351.44-15.43Q351.44-16.98 351.01-18.26 350.59-19.55 349.76-20.49 348.94-21.43 347.75-21.94 346.56-22.45 345.04-22.45ZM378.43 0.4L378.43 0.4Q375.43 0.4 373.82-1.28 372.21-2.95 372.21-6.1L372.21-6.1 372.21-21.6 369.16-21.6Q368.76-21.6 368.48-21.84 368.21-22.08 368.21-22.58L368.21-22.58 368.21-24.35 372.36-24.88 373.38-32.7Q373.43-33.08 373.71-33.31 373.98-33.55 374.41-33.55L374.41-33.55 376.66-33.55 376.66-24.83 383.91-24.83 383.91-21.6 376.66-21.6 376.66-6.4Q376.66-4.8 377.43-4.03 378.21-3.25 379.43-3.25L379.43-3.25Q380.13-3.25 380.65-3.44 381.16-3.63 381.53-3.85 381.91-4.08 382.17-4.26 382.43-4.45 382.63-4.45L382.63-4.45Q382.98-4.45 383.26-4.03L383.26-4.03 384.56-1.9Q383.41-0.83 381.78-0.21 380.16 0.4 378.43 0.4ZM389.91-25.33L394.36-25.33 394.36 0 389.91 0 389.91-25.33ZM395.36-33.27L395.36-33.27Q395.36-32.63 395.09-32.06 394.83-31.5 394.39-31.06 393.96-30.63 393.38-30.38 392.81-30.13 392.16-30.13L392.16-30.13Q391.51-30.13 390.94-30.38 390.38-30.63 389.94-31.06 389.51-31.5 389.26-32.06 389.01-32.63 389.01-33.27L389.01-33.27Q389.01-33.93 389.26-34.51 389.51-35.1 389.94-35.54 390.38-35.98 390.94-36.23 391.51-36.48 392.16-36.48L392.16-36.48Q392.81-36.48 393.38-36.23 393.96-35.98 394.39-35.54 394.83-35.1 395.09-34.51 395.36-33.93 395.36-33.27ZM407.68 0L403.2 0 403.2-21.53 400.4-21.85Q399.88-21.98 399.54-22.24 399.2-22.5 399.2-23L399.2-23 399.2-24.83 403.2-24.83 403.2-27.28Q403.2-29.45 403.82-31.14 404.43-32.83 405.57-33.99 406.7-35.15 408.3-35.75 409.9-36.35 411.9-36.35L411.9-36.35Q413.6-36.35 415.05-35.85L415.05-35.85 414.95-33.63Q414.93-33.13 414.53-33.02 414.13-32.93 413.4-32.93L413.4-32.93 412.63-32.93Q411.48-32.93 410.54-32.63 409.6-32.33 408.93-31.65 408.25-30.98 407.89-29.88 407.53-28.78 407.53-27.15L407.53-27.15 407.53-24.83 414.85-24.83 414.85-21.6 407.68-21.6 407.68 0ZM424.53 0L420.05 0 420.05-21.53 417.25-21.85Q416.73-21.98 416.39-22.24 416.05-22.5 416.05-23L416.05-23 416.05-24.83 420.05-24.83 420.05-27.28Q420.05-29.45 420.66-31.14 421.28-32.83 422.41-33.99 423.55-35.15 425.15-35.75 426.75-36.35 428.75-36.35L428.75-36.35Q430.45-36.35 431.9-35.85L431.9-35.85 431.8-33.63Q431.78-33.13 431.38-33.02 430.98-32.93 430.25-32.93L430.25-32.93 429.48-32.93Q428.33-32.93 427.39-32.63 426.45-32.33 425.78-31.65 425.1-30.98 424.74-29.88 424.38-28.78 424.38-27.15L424.38-27.15 424.38-24.83 431.7-24.83 431.7-21.6 424.53-21.6 424.53 0ZM436.4-25.33L440.85-25.33 440.85 0 436.4 0 436.4-25.33ZM441.85-33.27L441.85-33.27Q441.85-32.63 441.59-32.06 441.32-31.5 440.89-31.06 440.45-30.63 439.87-30.38 439.3-30.13 438.65-30.13L438.65-30.13Q438-30.13 437.44-30.38 436.87-30.63 436.44-31.06 436-31.5 435.75-32.06 435.5-32.63 435.5-33.27L435.5-33.27Q435.5-33.93 435.75-34.51 436-35.1 436.44-35.54 436.87-35.98 437.44-36.23 438-36.48 438.65-36.48L438.65-36.48Q439.3-36.48 439.87-36.23 440.45-35.98 440.89-35.54 441.32-35.1 441.59-34.51 441.85-33.93 441.85-33.27ZM453.15 0L448.7 0 448.7-25.33 451.35-25.33Q452.3-25.33 452.55-24.4L452.55-24.4 452.9-21.65Q454.55-23.48 456.58-24.6 458.62-25.73 461.3-25.73L461.3-25.73Q463.37-25.73 464.96-25.04 466.55-24.35 467.61-23.09 468.67-21.83 469.22-20.05 469.77-18.28 469.77-16.13L469.77-16.13 469.77 0 465.32 0 465.32-16.13Q465.32-19 464.01-20.59 462.7-22.18 460-22.18L460-22.18Q458.02-22.18 456.31-21.23 454.6-20.28 453.15-18.65L453.15-18.65 453.15 0ZM501.64-22.78L500.64-21.15Q500.34-20.6 499.72-20.6L499.72-20.6Q499.34-20.6 498.87-20.88 498.39-21.15 497.7-21.49 497.02-21.83 496.07-22.11 495.12-22.4 493.82-22.4L493.82-22.4Q492.69-22.4 491.79-22.11 490.89-21.83 490.25-21.33 489.62-20.83 489.28-20.16 488.94-19.5 488.94-18.73L488.94-18.73Q488.94-17.75 489.5-17.1 490.07-16.45 490.99-15.98 491.92-15.5 493.09-15.14 494.27-14.78 495.5-14.36 496.74-13.95 497.92-13.45 499.09-12.95 500.02-12.2 500.94-11.45 501.5-10.36 502.07-9.28 502.07-7.75L502.07-7.75Q502.07-6 501.44-4.51 500.82-3.03 499.59-1.94 498.37-0.85 496.59-0.23 494.82 0.4 492.49 0.4L492.49 0.4Q489.84 0.4 487.69-0.46 485.54-1.33 484.04-2.68L484.04-2.68 485.09-4.38Q485.29-4.7 485.57-4.88 485.84-5.05 486.29-5.05L486.29-5.05Q486.74-5.05 487.24-4.7 487.74-4.35 488.45-3.93 489.17-3.5 490.18-3.15 491.19-2.8 492.72-2.8L492.72-2.8Q494.02-2.8 494.99-3.14 495.97-3.48 496.62-4.05 497.27-4.63 497.58-5.38 497.89-6.13 497.89-6.98L497.89-6.98Q497.89-8.03 497.33-8.71 496.77-9.4 495.84-9.89 494.92-10.38 493.73-10.74 492.54-11.1 491.3-11.5 490.07-11.9 488.88-12.41 487.69-12.93 486.77-13.7 485.84-14.48 485.28-15.61 484.72-16.75 484.72-18.38L484.72-18.38Q484.72-19.83 485.32-21.16 485.92-22.5 487.07-23.51 488.22-24.53 489.89-25.13 491.57-25.73 493.72-25.73L493.72-25.73Q496.22-25.73 498.2-24.94 500.19-24.15 501.64-22.78L501.64-22.78ZM517.86-25.73L517.86-25.73Q520.14-25.73 522.06-24.96 523.99-24.2 525.39-22.76 526.79-21.33 527.58-19.21 528.36-17.1 528.36-14.4L528.36-14.4Q528.36-13.35 528.14-13 527.91-12.65 527.29-12.65L527.29-12.65 510.44-12.65Q510.49-10.25 511.09-8.47 511.69-6.7 512.74-5.51 513.79-4.33 515.24-3.74 516.69-3.15 518.49-3.15L518.49-3.15Q520.16-3.15 521.38-3.54 522.59-3.93 523.46-4.38 524.34-4.83 524.93-5.21 525.51-5.6 525.94-5.6L525.94-5.6Q526.49-5.6 526.79-5.18L526.79-5.18 528.04-3.55Q527.21-2.55 526.06-1.81 524.91-1.07 523.6-0.6 522.29-0.13 520.89 0.11 519.49 0.35 518.11 0.35L518.11 0.35Q515.49 0.35 513.28-0.54 511.06-1.43 509.45-3.14 507.84-4.85 506.94-7.38 506.04-9.9 506.04-13.18L506.04-13.18Q506.04-15.83 506.85-18.13 507.66-20.43 509.19-22.11 510.71-23.8 512.91-24.76 515.11-25.73 517.86-25.73ZM517.96-22.45L517.96-22.45Q514.74-22.45 512.89-20.59 511.04-18.73 510.59-15.43L510.59-15.43 524.36-15.43Q524.36-16.98 523.94-18.26 523.51-19.55 522.69-20.49 521.86-21.43 520.68-21.94 519.49-22.45 517.96-22.45ZM538.49 0L534.04 0 534.04-25.33 536.59-25.33Q537.31-25.33 537.59-25.05 537.86-24.78 537.96-24.1L537.96-24.1 538.26-20.15Q539.56-22.8 541.47-24.29 543.39-25.78 545.96-25.78L545.96-25.78Q547.01-25.78 547.86-25.54 548.71-25.3 549.44-24.88L549.44-24.88 548.86-21.55Q548.69-20.93 548.09-20.93L548.09-20.93Q547.74-20.93 547.01-21.16 546.29-21.4 544.99-21.4L544.99-21.4Q542.66-21.4 541.1-20.05 539.54-18.7 538.49-16.13L538.49-16.13 538.49 0ZM561.31 0L550.98-25.33 554.63-25.33Q555.16-25.33 555.51-25.05 555.86-24.78 556.01-24.4L556.01-24.4 562.43-8.1Q562.78-7.2 562.98-6.3 563.18-5.4 563.36-4.53L563.36-4.53Q563.56-5.4 563.78-6.3 564.01-7.2 564.36-8.1L564.36-8.1 570.86-24.4Q571.01-24.8 571.35-25.06 571.68-25.33 572.18-25.33L572.18-25.33 575.66-25.33 565.33 0 561.31 0ZM580.28-25.33L584.73-25.33 584.73 0 580.28 0 580.28-25.33ZM585.73-33.27L585.73-33.27Q585.73-32.63 585.47-32.06 585.21-31.5 584.77-31.06 584.33-30.63 583.75-30.38 583.18-30.13 582.53-30.13L582.53-30.13Q581.88-30.13 581.32-30.38 580.75-30.63 580.32-31.06 579.88-31.5 579.63-32.06 579.38-32.63 579.38-33.27L579.38-33.27Q579.38-33.93 579.63-34.51 579.88-35.1 580.32-35.54 580.75-35.98 581.32-36.23 581.88-36.48 582.53-36.48L582.53-36.48Q583.18-36.48 583.75-36.23 584.33-35.98 584.77-35.54 585.21-35.1 585.47-34.51 585.73-33.93 585.73-33.27ZM611.03-22.43L609.85-20.83Q609.65-20.55 609.45-20.4 609.25-20.25 608.88-20.25L608.88-20.25Q608.5-20.25 608.06-20.56 607.63-20.88 606.95-21.25 606.28-21.63 605.31-21.94 604.35-22.25 602.95-22.25L602.95-22.25Q601.1-22.25 599.68-21.59 598.25-20.93 597.29-19.68 596.33-18.43 595.84-16.65 595.35-14.88 595.35-12.68L595.35-12.68Q595.35-10.38 595.88-8.59 596.4-6.8 597.35-5.59 598.3-4.38 599.66-3.74 601.03-3.1 602.73-3.1L602.73-3.1Q604.35-3.1 605.4-3.49 606.45-3.88 607.15-4.35 607.85-4.83 608.3-5.21 608.75-5.6 609.2-5.6L609.2-5.6Q609.78-5.6 610.05-5.18L610.05-5.18 611.3-3.55Q609.65-1.53 607.18-0.59 604.7 0.35 601.95 0.35L601.95 0.35Q599.58 0.35 597.54-0.53 595.5-1.4 594-3.06 592.5-4.73 591.64-7.15 590.78-9.58 590.78-12.68L590.78-12.68Q590.78-15.5 591.56-17.9 592.35-20.3 593.86-22.04 595.38-23.78 597.6-24.75 599.83-25.73 602.7-25.73L602.7-25.73Q605.35-25.73 607.4-24.86 609.45-24 611.03-22.43L611.03-22.43ZM625.95-25.73L625.95-25.73Q628.22-25.73 630.15-24.96 632.07-24.2 633.47-22.76 634.87-21.33 635.66-19.21 636.45-17.1 636.45-14.4L636.45-14.4Q636.45-13.35 636.22-13 636-12.65 635.37-12.65L635.37-12.65 618.52-12.65Q618.57-10.25 619.17-8.47 619.77-6.7 620.82-5.51 621.87-4.33 623.32-3.74 624.77-3.15 626.57-3.15L626.57-3.15Q628.25-3.15 629.46-3.54 630.67-3.93 631.55-4.38 632.42-4.83 633.01-5.21 633.6-5.6 634.02-5.6L634.02-5.6Q634.57-5.6 634.87-5.18L634.87-5.18 636.12-3.55Q635.3-2.55 634.15-1.81 633-1.07 631.69-0.6 630.37-0.13 628.97 0.11 627.57 0.35 626.2 0.35L626.2 0.35Q623.57 0.35 621.36-0.54 619.15-1.43 617.54-3.14 615.92-4.85 615.02-7.38 614.12-9.9 614.12-13.18L614.12-13.18Q614.12-15.83 614.94-18.13 615.75-20.43 617.27-22.11 618.8-23.8 621-24.76 623.2-25.73 625.95-25.73ZM626.05-22.45L626.05-22.45Q622.82-22.45 620.97-20.59 619.12-18.73 618.67-15.43L618.67-15.43 632.45-15.43Q632.45-16.98 632.02-18.26 631.6-19.55 630.77-20.49 629.95-21.43 628.76-21.94 627.57-22.45 626.05-22.45ZM640.67-2.75L640.67-2.75Q640.67-3.4 640.91-3.98 641.15-4.55 641.56-4.98 641.97-5.4 642.55-5.65 643.12-5.9 643.77-5.9L643.77-5.9Q644.42-5.9 645-5.65 645.57-5.4 646-4.98 646.42-4.55 646.66-3.98 646.9-3.4 646.9-2.75L646.9-2.75Q646.9-2.08 646.66-1.51 646.42-0.95 646-0.53 645.57-0.1 645 0.14 644.42 0.38 643.77 0.38L643.77 0.38Q643.12 0.38 642.55 0.14 641.97-0.1 641.56-0.53 641.15-0.95 640.91-1.51 640.67-2.08 640.67-2.75Z" opacity="1" transform="matrix(1,0,0,1,0,0)" fill="#000000" class="slogan-text-1" data-fill-palette-color="secondary" id="text-1"></path></svg></g></svg></g></svg></g></svg></g><g transform="matrix(1,0,0,1,121.70319912801038,0)"><svg viewBox="0 0 152.11360174397922 275.32531918893966" height="275.32531918893966" width="152.11360174397922"><g><svg xmlns="http://www.w3.org/2000/svg" xmlns:xlink="http://www.w3.org/1999/xlink" version="1.1" x="0" y="0" viewBox="36.545 7.75 70.99400000000001 128.499" enable-background="new 0 0 144.083 144" xml:space="preserve" height="275.32531918893966" width="152.11360174397922" class="icon-icon-0" data-fill-palette-color="accent" id="icon-0"><path d="M97.557 21.833V7.75H86.245h-3H57.837 46.526v14.083h-9.981v92.159c0 0.417 0.192 7.07 10.646 11.479v10.778h36.055 13.477 0.836v-11.069c9.795-4.404 9.98-10.78 9.98-11.188V21.833H97.557zM49.526 10.75h8.312v11.083h-8.312V10.75zM57.837 133.25H50.19v-6.672c2.183 0.698 4.71 1.304 7.647 1.768V133.25zM83.245 133.25H60.837v-4.5c3.276 0.375 6.983 0.593 11.204 0.593 4.225 0 7.93-0.22 11.203-0.598V133.25zM83.245 125.736c-3.223 0.384-6.932 0.606-11.203 0.606-31.76 0-32.493-12.249-32.497-12.351V92.827h43.7V125.736zM83.245 89.827h-43.7V58.83h43.7V89.827zM83.245 26.127V55.83h-43.7V24.833h43.7V26.127zM83.245 21.833H60.837V10.75h22.407V21.833zM94.557 133.25h-8.313V10.75h8.313V133.25zM104.538 113.971c-0.002 0.072-0.27 4.354-6.98 7.861V92.827h6.98V113.971zM104.538 89.827h-6.98V58.83h6.98V89.827zM104.538 55.83h-6.98V26.127v-1.294h6.98V55.83z" fill="#000000" data-fill-palette-color="accent"></path><rect x="47.615" y="33.349" width="27.925" height="3" fill="#000000" data-fill-palette-color="accent"></rect><rect x="47.615" y="67.347" width="27.925" height="3" fill="#000000" data-fill-palette-color="accent"></rect><rect x="47.615" y="101.344" width="27.925" height="3" fill="#000000" data-fill-palette-color="accent"></rect></svg></g></svg></g><g></g></svg></g><defs></defs></svg><rect width="191.98405384484286" height="247.2" fill="none" stroke="none" visibility="hidden"></rect></g></svg></g></svg>